<svg width="232" height="27" viewBox="0 0 232 27" fill="none" xmlns="http://www.w3.org/2000/svg">
<g filter="url(#filter0_d_1_5)">
<path d="M4.85227 3.58807V0.545454H19.1875V3.58807H13.8438V18H10.196V3.58807H4.85227ZM21.5483 18V0.545454H28.4347C29.7528 0.545454 30.8778 0.78125 31.8097 1.25284C32.7472 1.71875 33.4602 2.38068 33.9489 3.23864C34.4432 4.09091 34.6903 5.09375 34.6903 6.24716C34.6903 7.40625 34.4403 8.40341 33.9403 9.23864C33.4403 10.0682 32.7159 10.7045 31.767 11.1477C30.8239 11.5909 29.6818 11.8125 28.3409 11.8125H23.7301V8.84659H27.7443C28.4489 8.84659 29.0341 8.75 29.5 8.55682C29.9659 8.36364 30.3125 8.07386 30.5398 7.6875C30.7727 7.30114 30.8892 6.82102 30.8892 6.24716C30.8892 5.66761 30.7727 5.17898 30.5398 4.78125C30.3125 4.38352 29.9631 4.08239 29.4915 3.87784C29.0256 3.66761 28.4375 3.5625 27.7273 3.5625H25.2386V18H21.5483ZM30.9744 10.0568L35.3125 18H31.2386L26.9943 10.0568H30.9744ZM48.0795 0.545454H51.7699V11.8807C51.7699 13.1534 51.4659 14.267 50.858 15.2216C50.2557 16.1761 49.4119 16.9205 48.3267 17.4545C47.2415 17.983 45.9773 18.2472 44.5341 18.2472C43.0852 18.2472 41.8182 17.983 40.733 17.4545C39.6477 16.9205 38.804 16.1761 38.2017 15.2216C37.5994 14.267 37.2983 13.1534 37.2983 11.8807V0.545454H40.9886V11.5653C40.9886 12.2301 41.1335 12.821 41.4233 13.3381C41.7188 13.8551 42.1335 14.2614 42.6676 14.5568C43.2017 14.8523 43.8239 15 44.5341 15C45.25 15 45.8722 14.8523 46.4006 14.5568C46.9347 14.2614 47.3466 13.8551 47.6364 13.3381C47.9318 12.821 48.0795 12.2301 48.0795 11.5653V0.545454ZM64.2749 5.56534C64.2067 4.87784 63.9141 4.34375 63.397 3.96307C62.88 3.58239 62.1783 3.39204 61.2919 3.39204C60.6896 3.39204 60.1811 3.47727 59.7663 3.64773C59.3516 3.8125 59.0334 4.04261 58.8118 4.33807C58.5959 4.63352 58.4879 4.96875 58.4879 5.34375C58.4766 5.65625 58.5419 5.92898 58.6839 6.16193C58.8317 6.39489 59.0334 6.59659 59.2891 6.76705C59.5447 6.93182 59.8402 7.0767 60.1754 7.2017C60.5107 7.32102 60.8686 7.4233 61.2493 7.50852L62.8175 7.88352C63.5788 8.05398 64.2777 8.28125 64.9141 8.56534C65.5504 8.84943 66.1016 9.19886 66.5675 9.61364C67.0334 10.0284 67.3942 10.517 67.6499 11.0795C67.9112 11.642 68.0447 12.2869 68.0504 13.0142C68.0447 14.0824 67.772 15.0085 67.2322 15.7926C66.6982 16.571 65.9254 17.1761 64.9141 17.608C63.9084 18.0341 62.6953 18.2472 61.2749 18.2472C59.8658 18.2472 58.6385 18.0312 57.593 17.5994C56.5533 17.1676 55.7408 16.5284 55.1555 15.6818C54.576 14.8295 54.272 13.7756 54.2436 12.5199H57.8146C57.8544 13.1051 58.022 13.5937 58.3175 13.9858C58.6186 14.3722 59.0192 14.6648 59.5192 14.8636C60.0249 15.0568 60.5959 15.1534 61.2322 15.1534C61.8572 15.1534 62.3999 15.0625 62.8601 14.8807C63.326 14.6989 63.6868 14.446 63.9425 14.1222C64.1982 13.7983 64.326 13.4261 64.326 13.0057C64.326 12.6136 64.2095 12.2841 63.9766 12.017C63.7493 11.75 63.4141 11.5227 62.9709 11.3352C62.5334 11.1477 61.9964 10.9773 61.3601 10.8239L59.4595 10.3466C57.9879 9.98864 56.826 9.42898 55.9737 8.66761C55.1214 7.90625 54.6982 6.88068 54.7038 5.59091C54.6982 4.53409 54.9794 3.6108 55.5476 2.82102C56.1214 2.03125 56.9084 1.41477 57.9084 0.971591C58.9084 0.528409 60.0447 0.306818 61.3175 0.306818C62.6129 0.306818 63.7436 0.528409 64.7095 0.971591C65.6811 1.41477 66.4368 2.03125 66.9766 2.82102C67.5163 3.6108 67.7947 4.52557 67.8118 5.56534H64.2749ZM69.8679 3.58807V0.545454H84.2031V3.58807H78.8594V18H75.2116V3.58807H69.8679ZM86.5639 18V0.545454H98.3253V3.58807H90.2543V7.74716H97.7202V10.7898H90.2543V14.9574H98.3594V18H86.5639ZM107.447 18H101.259V0.545454H107.498C109.254 0.545454 110.765 0.894886 112.032 1.59375C113.299 2.28693 114.273 3.28409 114.955 4.58523C115.643 5.88636 115.987 7.44318 115.987 9.25568C115.987 11.0739 115.643 12.6364 114.955 13.9432C114.273 15.25 113.293 16.2528 112.015 16.9517C110.742 17.6506 109.219 18 107.447 18ZM104.95 14.8381H107.293C108.384 14.8381 109.302 14.6449 110.046 14.2585C110.796 13.8665 111.359 13.2614 111.734 12.4432C112.114 11.6193 112.305 10.5568 112.305 9.25568C112.305 7.96591 112.114 6.91193 111.734 6.09375C111.359 5.27557 110.799 4.6733 110.055 4.28693C109.31 3.90057 108.393 3.70739 107.302 3.70739H104.95V14.8381Z" fill="black"/>
<path d="M124.275 18V0.545454H127.965V7.74716H135.457V0.545454H139.138V18H135.457V10.7898H127.965V18H124.275ZM145.19 18H141.235L147.261 0.545454H152.016L158.033 18H154.079L149.707 4.53409H149.57L145.19 18ZM144.942 11.1392H154.283V14.0199H144.942V11.1392ZM160.134 18V0.545454H167.123C168.407 0.545454 169.478 0.735795 170.336 1.11648C171.194 1.49716 171.839 2.02557 172.271 2.7017C172.702 3.37216 172.918 4.14489 172.918 5.01989C172.918 5.7017 172.782 6.30114 172.509 6.81818C172.237 7.32955 171.862 7.75 171.384 8.07955C170.913 8.40341 170.373 8.63352 169.765 8.76989V8.94034C170.43 8.96875 171.052 9.15625 171.631 9.50284C172.217 9.84943 172.691 10.3352 173.055 10.9602C173.418 11.5795 173.6 12.3182 173.6 13.1761C173.6 14.1023 173.37 14.929 172.91 15.6562C172.455 16.3778 171.782 16.9489 170.89 17.3693C169.998 17.7898 168.898 18 167.592 18H160.134ZM163.825 14.983H166.833C167.862 14.983 168.612 14.7869 169.083 14.3949C169.555 13.9972 169.79 13.4687 169.79 12.8097C169.79 12.3267 169.674 11.9006 169.441 11.5312C169.208 11.1619 168.876 10.8722 168.444 10.6619C168.018 10.4517 167.509 10.3466 166.918 10.3466H163.825V14.983ZM163.825 7.84943H166.56C167.066 7.84943 167.515 7.76136 167.907 7.58523C168.305 7.40341 168.617 7.14773 168.844 6.81818C169.077 6.48864 169.194 6.09375 169.194 5.63352C169.194 5.00284 168.969 4.49432 168.521 4.10795C168.077 3.72159 167.447 3.52841 166.629 3.52841H163.825V7.84943ZM176.001 18V0.545454H182.99C184.274 0.545454 185.345 0.735795 186.203 1.11648C187.061 1.49716 187.706 2.02557 188.138 2.7017C188.57 3.37216 188.786 4.14489 188.786 5.01989C188.786 5.7017 188.649 6.30114 188.376 6.81818C188.104 7.32955 187.729 7.75 187.251 8.07955C186.78 8.40341 186.24 8.63352 185.632 8.76989V8.94034C186.297 8.96875 186.919 9.15625 187.499 9.50284C188.084 9.84943 188.558 10.3352 188.922 10.9602C189.286 11.5795 189.467 12.3182 189.467 13.1761C189.467 14.1023 189.237 14.929 188.777 15.6562C188.322 16.3778 187.649 16.9489 186.757 17.3693C185.865 17.7898 184.766 18 183.459 18H176.001ZM179.692 14.983H182.7C183.729 14.983 184.479 14.7869 184.95 14.3949C185.422 13.9972 185.658 13.4687 185.658 12.8097C185.658 12.3267 185.541 11.9006 185.308 11.5312C185.075 11.1619 184.743 10.8722 184.311 10.6619C183.885 10.4517 183.376 10.3466 182.786 10.3466H179.692V14.983ZM179.692 7.84943H182.428C182.933 7.84943 183.382 7.76136 183.774 7.58523C184.172 7.40341 184.484 7.14773 184.712 6.81818C184.945 6.48864 185.061 6.09375 185.061 5.63352C185.061 5.00284 184.837 4.49432 184.388 4.10795C183.945 3.72159 183.314 3.52841 182.496 3.52841H179.692V7.84943ZM195.559 0.545454V18H191.869V0.545454H195.559ZM197.93 3.58807V0.545454H212.266V3.58807H206.922V18H203.274V3.58807H197.93ZM224.095 5.56534C224.027 4.87784 223.734 4.34375 223.217 3.96307C222.7 3.58239 221.999 3.39204 221.112 3.39204C220.51 3.39204 220.001 3.47727 219.587 3.64773C219.172 3.8125 218.854 4.04261 218.632 4.33807C218.416 4.63352 218.308 4.96875 218.308 5.34375C218.297 5.65625 218.362 5.92898 218.504 6.16193C218.652 6.39489 218.854 6.59659 219.109 6.76705C219.365 6.93182 219.661 7.0767 219.996 7.2017C220.331 7.32102 220.689 7.4233 221.07 7.50852L222.638 7.88352C223.399 8.05398 224.098 8.28125 224.734 8.56534C225.371 8.84943 225.922 9.19886 226.388 9.61364C226.854 10.0284 227.214 10.517 227.47 11.0795C227.732 11.642 227.865 12.2869 227.871 13.0142C227.865 14.0824 227.592 15.0085 227.053 15.7926C226.518 16.571 225.746 17.1761 224.734 17.608C223.729 18.0341 222.516 18.2472 221.095 18.2472C219.686 18.2472 218.459 18.0312 217.413 17.5994C216.374 17.1676 215.561 16.5284 214.976 15.6818C214.396 14.8295 214.092 13.7756 214.064 12.5199H217.635C217.675 13.1051 217.842 13.5937 218.138 13.9858C218.439 14.3722 218.839 14.6648 219.339 14.8636C219.845 15.0568 220.416 15.1534 221.053 15.1534C221.678 15.1534 222.22 15.0625 222.68 14.8807C223.146 14.6989 223.507 14.446 223.763 14.1222C224.018 13.7983 224.146 13.4261 224.146 13.0057C224.146 12.6136 224.03 12.2841 223.797 12.017C223.57 11.75 223.234 11.5227 222.791 11.3352C222.354 11.1477 221.817 10.9773 221.18 10.8239L219.28 10.3466C217.808 9.98864 216.646 9.42898 215.794 8.66761C214.942 7.90625 214.518 6.88068 214.524 5.59091C214.518 4.53409 214.8 3.6108 215.368 2.82102C215.942 2.03125 216.729 1.41477 217.729 0.971591C218.729 0.528409 219.865 0.306818 221.138 0.306818C222.433 0.306818 223.564 0.528409 224.53 0.971591C225.501 1.41477 226.257 2.03125 226.797 2.82102C227.337 3.6108 227.615 4.52557 227.632 5.56534H224.095Z" fill="#ED9B0D"/>
</g>
<defs>
<filter id="filter0_d_1_5" x="0.852295" y="0.306824" width="231.018" height="25.9403" filterUnits="userSpaceOnUse" color-interpolation-filters="sRGB">
<feFlood flood-opacity="0" result="BackgroundImageFix"/>
<feColorMatrix in="SourceAlpha" type="matrix" values="0 0 0 0 0 0 0 0 0 0 0 0 0 0 0 0 0 0 127 0" result="hardAlpha"/>
<feOffset dy="4"/>
<feGaussianBlur stdDeviation="2"/>
<feComposite in2="hardAlpha" operator="out"/>
<feColorMatrix type="matrix" values="0 0 0 0 0 0 0 0 0 0 0 0 0 0 0 0 0 0 0.25 0"/>
<feBlend mode="normal" in2="BackgroundImageFix" result="effect1_dropShadow_1_5"/>
<feBlend mode="normal" in="SourceGraphic" in2="effect1_dropShadow_1_5" result="shape"/>
</filter>
</defs>
</svg>
